<svg xmlns="http://www.w3.org/2000/svg" width="128" height="128"><g fill="#241c49" stroke="#0a2119" stroke-miterlimit="10"><path d="M81.857 14a1.753 1.753 0 0 0-1.789.072L40.489 39.855H10.307a5.757 5.757 0 0 0-5.75 5.75V82.4a5.757 5.757 0 0 0 5.75 5.75h30.182l39.579 25.784a1.75 1.75 0 0 0 2.7-1.467V15.538A1.75 1.75 0 0 0 81.857 14zm-73.8 68.4V45.605a2.252 2.252 0 0 1 2.25-2.25h28.952v41.29H10.307a2.252 2.252 0 0 1-2.25-2.245zm71.216 26.839L42.759 85.447V42.553l36.514-23.787zM110.011 64l12.92-12.919a1.75 1.75 0 0 0-2.475-2.475l-12.919 12.919-12.92-12.919a1.75 1.75 0 1 0-2.474 2.475L105.062 64 92.143 76.919a1.75 1.75 0 1 0 2.474 2.475l12.92-12.919 12.919 12.919a1.75 1.75 0 0 0 2.475-2.475z"/></g></svg>
